<svg class="icon" viewBox="0 0 1024 1024" xmlns="http://www.w3.org/2000/svg" width="200" height="200"><path d="M878.8 256.5c-18.2-26-39.1-49.8-62.2-71.4-80.1-74.8-187.2-121-305.2-121-12.7 0-25.2.9-37.7 1.9-32.1 2.7-63.4 8.6-93.2 17.7-121.3 37.2-220.5 124.7-274 238-13.4 28.4-24 58.3-31.2 89.6-7.5 32.5-11.9 66.1-11.9 100.8 0 95 29.9 183 80.6 255.6 18.2 26 39.1 49.8 62.2 71.4 80.1 74.8 187.2 121 305.2 121 12.7 0 25.2-.9 37.7-1.9 32.1-2.7 63.4-8.6 93.2-17.7 121.3-37.2 220.5-124.7 274-238 13.4-28.4 24-58.3 31.2-89.6 7.5-32.5 11.9-66.1 11.9-100.8-.1-95-30-183.1-80.6-255.6zm-108.5 8.6-90.9 157.4-154.7-268.1c96.5 3.5 183.2 45.2 245.6 110.7zm-259 157.4c49.4 0 89.6 40.2 89.6 89.6s-40.2 89.6-89.6 89.6-89.6-40.2-89.6-89.6 40.2-89.6 89.6-89.6zm-84.4-258.3 90.9 157.5H208.2c49-77.7 126.9-135.3 218.7-157.5zm-274 347.9c0-35 5.3-68.8 14.7-100.8h182.1l-155 268.3c-26.6-50-41.8-107-41.8-167.5zm99.4 247 90.9-157.4L498 869.8c-96.5-3.6-183.3-45.3-245.7-110.7zM595.8 860l-90.9-157.5h309.6c-49.1 77.7-127 135.2-218.7 157.5zM673 612.9l154.9-268.4c26.6 50 41.8 107 41.8 167.6 0 35-5.3 68.8-14.7 100.8H673z" fill="#646464"/></svg>