<svg class="icon" viewBox="0 0 1024 1024" fill="currentColor"><path d="M558.5 724.2h-94.3c-26 0-47.2 21.1-47.2 47.2 0 26 21.1 47.2 47.2 47.2h94.3c26 0 47.2-21.1 47.2-47.2-.1-26.1-21.2-47.2-47.2-47.2z"/><path d="M888.6 64H134.1c-26 0-47.2 21.1-47.2 47.2v801.7c0 26 21.1 47.2 47.2 47.2h754.5c26 0 47.2-21.1 47.2-47.2V111.1c0-26-21.2-47.1-47.2-47.1zM652.8 299.7H369.9V158.3h282.9v141.4zM369.9 865.6V677h282.9v188.6H369.9zm377.2-235.8c0-26-21.1-47.2-47.2-47.2H322.7c-26 0-47.2 21.1-47.2 47.2v235.8h-94.3V158.3h94.3v188.6c0 26 21.1 47.2 47.2 47.2H700c26 0 47.2-21.1 47.2-47.2V158.3h94.3v707.4h-94.3V629.8z"/><path d="M511.3 229a47.2 47.2 0 1 0 94.4 0 47.2 47.2 0 1 0-94.4 0z"/></svg>